<svg height="280" width="280" xmlns="http://www.w3.org/2000/svg">

  <style>
    text { font: bold 28px sans-serif; text-anchor: middle; fill: #369;}
    polygon { fill:#ff4; stroke:#369; stroke-width:4; filter:url(#shadow); }
  </style>

  <defs>
    <filter id="shadow">
      <feDropShadow dx="4" dy="8" stdDeviation="4"/>
    </filter>
  </defs>

  <polygon points="
    255,130 224.187261830512,142.3999882609049 250.74072828613356,162.3523806378151 217.76855558857224,166.35492607468353 238.25317547305485,192.5 205.36856732766734,187.83233575582847 218.38834764831844,218.38834764831842 187.83233575582847,205.36856732766734 192.5,238.25317547305482 166.35492607468353,217.76855558857224 162.35238063781512,250.74072828613353 142.3999882609049,224.187261830512 130,255 117.60001173909512,224.187261830512 97.64761936218491,250.74072828613356 93.6450739253165,217.76855558857227 67.50000000000003,238.25317547305485 72.16766424417156,205.36856732766736 41.61165235168157,218.38834764831844 54.631432672332664,187.83233575582847 21.74682452694519,192.50000000000006 42.23144441142776,166.35492607468353 9.259271713866468,162.35238063781514 35.812738169488014,142.39998826090493 5,130.00000000000003 35.812738169488,117.60001173909512 9.259271713866454,97.64761936218495 42.231444411427745,93.64507392531652 21.746824526945147,67.50000000000003 54.631432672332636,72.16766424417156 41.61165235168151,41.61165235168161 72.16766424417152,54.63143267233268 67.49999999999994,21.74682452694519 93.64507392531641,42.23144441142779 97.64761936218481,9.259271713866482 117.60001173909501,35.81273816948803 129.99999999999997,5 142.39998826090488,35.812738169488 162.35238063781503,9.259271713866454 166.35492607468348,42.231444411427745 192.49999999999991,21.74682452694512 187.83233575582838,54.63143267233261 218.38834764831842,41.61165235168154 205.36856732766734,72.16766424417152 238.2531754730548,67.49999999999994 217.7685555885722,93.64507392531641 250.7407282861335,97.6476193621848 224.18726183051197,117.60001173909501" />
  <text x="130" y="100">Now with</text>
  <text x="130" y="135">added</text>
  <text x="130" y="170">playground!</text>
</svg>
